<svg xmlns="http://www.w3.org/2000/svg" xmlns:xlink="http://www.w3.org/1999/xlink" contentStyleType="text/css" height="523px" preserveAspectRatio="none" style="width:1069px;height:523px;background:#FFFFFF;" version="1.1" viewBox="0 0 1069 523" width="1069px" zoomAndPan="magnify"><defs/><g><rect fill="#ADD8E6" height="511.4375" style="stroke:#181818;stroke-width:0.5;" width="471.3604" x="21" y="6"/><text fill="#000000" font-family="sans-serif" font-size="13" font-weight="bold" lengthAdjust="spacing" textLength="136.5063" x="188.427" y="19.4951">Host with ESP-Hosted</text><rect fill="#D3D3D3" height="511.4375" style="stroke:#181818;stroke-width:0.5;" width="511.7646" x="534.3604" y="6"/><text fill="#000000" font-family="sans-serif" font-size="13" font-weight="bold" lengthAdjust="spacing" textLength="111.9854" x="734.25" y="19.4951">Slave ESP-Hosted</text><line style="stroke:#181818;stroke-width:0.5;stroke-dasharray:5.0,5.0;" x1="66" x2="66" y1="58.9609" y2="481.8281"/><line style="stroke:#181818;stroke-width:0.5;stroke-dasharray:5.0,5.0;" x1="171.8198" x2="171.8198" y1="58.9609" y2="481.8281"/><line style="stroke:#181818;stroke-width:0.5;stroke-dasharray:5.0,5.0;" x1="326.5127" x2="326.5127" y1="58.9609" y2="481.8281"/><line style="stroke:#181818;stroke-width:0.5;stroke-dasharray:5.0,5.0;" x1="434.7744" x2="434.7744" y1="58.9609" y2="481.8281"/><line style="stroke:#181818;stroke-width:0.5;stroke-dasharray:5.0,5.0;" x1="594.3604" x2="594.3604" y1="58.9609" y2="481.8281"/><line style="stroke:#181818;stroke-width:0.5;stroke-dasharray:5.0,5.0;" x1="709.1807" x2="709.1807" y1="58.9609" y2="481.8281"/><line style="stroke:#181818;stroke-width:0.5;stroke-dasharray:5.0,5.0;" x1="844.4492" x2="844.4492" y1="58.9609" y2="481.8281"/><line style="stroke:#181818;stroke-width:0.5;stroke-dasharray:5.0,5.0;" x1="985.8975" x2="985.8975" y1="58.9609" y2="481.8281"/><rect fill="#E2E2F0" height="31.6094" rx="2.5" ry="2.5" style="stroke:#181818;stroke-width:0.5;" width="82.4893" x="25" y="26.3516"/><text fill="#000000" font-family="sans-serif" font-size="14" lengthAdjust="spacing" textLength="68.4893" x="32" y="47.8848">Application</text><rect fill="#E2E2F0" height="31.6094" rx="2.5" ry="2.5" style="stroke:#181818;stroke-width:0.5;" width="82.4893" x="25" y="480.8281"/><text fill="#000000" font-family="sans-serif" font-size="14" lengthAdjust="spacing" textLength="68.4893" x="32" y="502.3613">Application</text><rect fill="#E2E2F0" height="31.6094" rx="2.5" ry="2.5" style="stroke:#181818;stroke-width:0.5;" width="99.5586" x="122.8198" y="26.3516"/><text fill="#000000" font-family="sans-serif" font-size="14" lengthAdjust="spacing" textLength="85.5586" x="129.8198" y="47.8848">Wi-Fi Remote</text><rect fill="#E2E2F0" height="31.6094" rx="2.5" ry="2.5" style="stroke:#181818;stroke-width:0.5;" width="99.5586" x="122.8198" y="480.8281"/><text fill="#000000" font-family="sans-serif" font-size="14" lengthAdjust="spacing" textLength="85.5586" x="129.8198" y="502.3613">Wi-Fi Remote</text><rect fill="#E2E2F0" height="31.6094" rx="2.5" ry="2.5" style="stroke:#181818;stroke-width:0.5;" width="90.2617" x="281.5127" y="26.3516"/><text fill="#000000" font-family="sans-serif" font-size="14" lengthAdjust="spacing" textLength="76.2617" x="288.5127" y="47.8848">ESP Hosted</text><rect fill="#E2E2F0" height="31.6094" rx="2.5" ry="2.5" style="stroke:#181818;stroke-width:0.5;" width="90.2617" x="281.5127" y="480.8281"/><text fill="#000000" font-family="sans-serif" font-size="14" lengthAdjust="spacing" textLength="76.2617" x="288.5127" y="502.3613">ESP Hosted</text><rect fill="#E2E2F0" height="31.6094" rx="2.5" ry="2.5" style="stroke:#181818;stroke-width:0.5;" width="106.5859" x="381.7744" y="26.3516"/><text fill="#000000" font-family="sans-serif" font-size="14" lengthAdjust="spacing" textLength="92.5859" x="388.7744" y="47.8848">Host Transport</text><rect fill="#E2E2F0" height="31.6094" rx="2.5" ry="2.5" style="stroke:#181818;stroke-width:0.5;" width="106.5859" x="381.7744" y="480.8281"/><text fill="#000000" font-family="sans-serif" font-size="14" lengthAdjust="spacing" textLength="92.5859" x="388.7744" y="502.3613">Host Transport</text><rect fill="#E2E2F0" height="31.6094" rx="2.5" ry="2.5" style="stroke:#181818;stroke-width:0.5;" width="112.8203" x="538.3604" y="26.3516"/><text fill="#000000" font-family="sans-serif" font-size="14" lengthAdjust="spacing" textLength="98.8203" x="545.3604" y="47.8848">Slave Transport</text><rect fill="#E2E2F0" height="31.6094" rx="2.5" ry="2.5" style="stroke:#181818;stroke-width:0.5;" width="112.8203" x="538.3604" y="480.8281"/><text fill="#000000" font-family="sans-serif" font-size="14" lengthAdjust="spacing" textLength="98.8203" x="545.3604" y="502.3613">Slave Transport</text><rect fill="#E2E2F0" height="31.6094" rx="2.5" ry="2.5" style="stroke:#181818;stroke-width:0.5;" width="97.2686" x="661.1807" y="26.3516"/><text fill="#000000" font-family="sans-serif" font-size="14" lengthAdjust="spacing" textLength="83.2686" x="668.1807" y="47.8848">Slave Hosted</text><rect fill="#E2E2F0" height="31.6094" rx="2.5" ry="2.5" style="stroke:#181818;stroke-width:0.5;" width="97.2686" x="661.1807" y="480.8281"/><text fill="#000000" font-family="sans-serif" font-size="14" lengthAdjust="spacing" textLength="83.2686" x="668.1807" y="502.3613">Slave Hosted</text><rect fill="#E2E2F0" height="31.6094" rx="2.5" ry="2.5" style="stroke:#181818;stroke-width:0.5;" width="152.4482" x="768.4492" y="26.3516"/><text fill="#000000" font-family="sans-serif" font-size="14" lengthAdjust="spacing" textLength="138.4482" x="775.4492" y="47.8848">ESP-IDF Wi-Fi Library</text><rect fill="#E2E2F0" height="31.6094" rx="2.5" ry="2.5" style="stroke:#181818;stroke-width:0.5;" width="152.4482" x="768.4492" y="480.8281"/><text fill="#000000" font-family="sans-serif" font-size="14" lengthAdjust="spacing" textLength="138.4482" x="775.4492" y="502.3613">ESP-IDF Wi-Fi Library</text><rect fill="#E2E2F0" height="31.6094" rx="2.5" ry="2.5" style="stroke:#181818;stroke-width:0.5;" width="111.2275" x="930.8975" y="26.3516"/><text fill="#000000" font-family="sans-serif" font-size="14" lengthAdjust="spacing" textLength="97.2275" x="937.8975" y="47.8848">Wi-Fi Hardware</text><rect fill="#E2E2F0" height="31.6094" rx="2.5" ry="2.5" style="stroke:#181818;stroke-width:0.5;" width="111.2275" x="930.8975" y="480.8281"/><text fill="#000000" font-family="sans-serif" font-size="14" lengthAdjust="spacing" textLength="97.2275" x="937.8975" y="502.3613">Wi-Fi Hardware</text><polygon fill="#181818" points="160.5991,87.3125,170.5991,91.3125,160.5991,95.3125,164.5991,91.3125" style="stroke:#181818;stroke-width:1.0;"/><line style="stroke:#181818;stroke-width:1.0;" x1="66.2446" x2="166.5991" y1="91.3125" y2="91.3125"/><text fill="#000000" font-family="sans-serif" font-size="13" lengthAdjust="spacing" textLength="82.3545" x="73.2446" y="86.4561">esp_wifi_xxx()</text><polygon fill="#181818" points="314.6436,117.6641,324.6436,121.6641,314.6436,125.6641,318.6436,121.6641" style="stroke:#181818;stroke-width:1.0;"/><line style="stroke:#181818;stroke-width:1.0;" x1="172.5991" x2="320.6436" y1="121.6641" y2="121.6641"/><text fill="#000000" font-family="sans-serif" font-size="13" lengthAdjust="spacing" textLength="130.0444" x="179.5991" y="116.8076">esp_wifi_remote_xxx()</text><polygon fill="#181818" points="423.0674,131.6641,433.0674,135.6641,423.0674,139.6641,427.0674,135.6641" style="stroke:#181818;stroke-width:1.0;"/><line style="stroke:#181818;stroke-width:1.0;" x1="326.6436" x2="429.0674" y1="135.6641" y2="135.6641"/><polygon fill="#181818" points="582.7705,162.0156,592.7705,166.0156,582.7705,170.0156,586.7705,166.0156" style="stroke:#181818;stroke-width:1.0;"/><line style="stroke:#181818;stroke-width:5.0;" x1="435.0674" x2="588.7705" y1="166.0156" y2="166.0156"/><text fill="#000000" font-family="sans-serif" font-size="13" lengthAdjust="spacing" textLength="56.3481" x="442.0674" y="161.1592">SPI/SDIO</text><polygon fill="#181818" points="697.8149,176.0156,707.8149,180.0156,697.8149,184.0156,701.8149,180.0156" style="stroke:#181818;stroke-width:1.0;"/><line style="stroke:#181818;stroke-width:1.0;" x1="594.7705" x2="703.8149" y1="180.0156" y2="180.0156"/><polygon fill="#181818" points="832.6733,206.3672,842.6733,210.3672,832.6733,214.3672,836.6733,210.3672" style="stroke:#181818;stroke-width:1.0;"/><line style="stroke:#181818;stroke-width:1.0;" x1="709.8149" x2="838.6733" y1="210.3672" y2="210.3672"/><text fill="#000000" font-family="sans-serif" font-size="13" lengthAdjust="spacing" textLength="82.3545" x="716.8149" y="205.5107">esp_wifi_xxx()</text><polygon fill="#181818" points="974.5112,220.3672,984.5112,224.3672,974.5112,228.3672,978.5112,224.3672" style="stroke:#181818;stroke-width:1.0;"/><line style="stroke:#181818;stroke-width:1.0;" x1="844.6733" x2="980.5112" y1="224.3672" y2="224.3672"/><line style="stroke:#181818;stroke-width:1.0;" x1="986.5112" x2="1028.5112" y1="254.7188" y2="254.7188"/><line style="stroke:#181818;stroke-width:1.0;" x1="1028.5112" x2="1028.5112" y1="254.7188" y2="267.7188"/><line style="stroke:#181818;stroke-width:1.0;" x1="987.5112" x2="1028.5112" y1="267.7188" y2="267.7188"/><polygon fill="#181818" points="997.5112,263.7188,987.5112,267.7188,997.5112,271.7188,993.5112,267.7188" style="stroke:#181818;stroke-width:1.0;"/><text fill="#000000" font-family="sans-serif" font-size="13" lengthAdjust="spacing" textLength="68.6182" x="993.5112" y="249.8623">Wi-Fi action</text><polygon fill="#181818" points="855.6733,294.0703,845.6733,298.0703,855.6733,302.0703,851.6733,298.0703" style="stroke:#181818;stroke-width:1.0;"/><line style="stroke:#181818;stroke-width:1.0;stroke-dasharray:2.0,2.0;" x1="849.6733" x2="985.5112" y1="298.0703" y2="298.0703"/><text fill="#000000" font-family="sans-serif" font-size="13" lengthAdjust="spacing" textLength="53.479" x="861.6733" y="293.2139">response</text><polygon fill="#181818" points="720.8149,340.7734,710.8149,344.7734,720.8149,348.7734,716.8149,344.7734" style="stroke:#181818;stroke-width:1.0;"/><line style="stroke:#181818;stroke-width:1.0;stroke-dasharray:2.0,2.0;" x1="714.8149" x2="843.6733" y1="344.7734" y2="344.7734"/><text fill="#000000" font-family="sans-serif" font-size="13" lengthAdjust="spacing" textLength="79.8535" x="726.8149" y="323.5654">return value +</text><text fill="#000000" font-family="sans-serif" font-size="13" lengthAdjust="spacing" textLength="68.6436" x="726.8149" y="339.917">data (if any)</text><polygon fill="#181818" points="605.7705,354.7734,595.7705,358.7734,605.7705,362.7734,601.7705,358.7734" style="stroke:#181818;stroke-width:1.0;"/><line style="stroke:#181818;stroke-width:1.0;stroke-dasharray:2.0,2.0;" x1="599.7705" x2="708.8149" y1="358.7734" y2="358.7734"/><polygon fill="#181818" points="446.0674,385.125,436.0674,389.125,446.0674,393.125,442.0674,389.125" style="stroke:#181818;stroke-width:1.0;"/><line style="stroke:#181818;stroke-width:5.0;stroke-dasharray:2.0,2.0;" x1="440.0674" x2="593.7705" y1="389.125" y2="389.125"/><text fill="#000000" font-family="sans-serif" font-size="13" lengthAdjust="spacing" textLength="56.3481" x="452.0674" y="384.2686">SPI/SDIO</text><polygon fill="#181818" points="337.6436,399.125,327.6436,403.125,337.6436,407.125,333.6436,403.125" style="stroke:#181818;stroke-width:1.0;"/><line style="stroke:#181818;stroke-width:1.0;stroke-dasharray:2.0,2.0;" x1="331.6436" x2="434.0674" y1="403.125" y2="403.125"/><polygon fill="#181818" points="183.5991,413.125,173.5991,417.125,183.5991,421.125,179.5991,417.125" style="stroke:#181818;stroke-width:1.0;"/><line style="stroke:#181818;stroke-width:1.0;stroke-dasharray:2.0,2.0;" x1="177.5991" x2="325.6436" y1="417.125" y2="417.125"/><polygon fill="#181818" points="77.2446,459.8281,67.2446,463.8281,77.2446,467.8281,73.2446,463.8281" style="stroke:#181818;stroke-width:1.0;"/><line style="stroke:#181818;stroke-width:1.0;stroke-dasharray:2.0,2.0;" x1="71.2446" x2="171.5991" y1="463.8281" y2="463.8281"/><text fill="#000000" font-family="sans-serif" font-size="13" lengthAdjust="spacing" textLength="79.8535" x="83.2446" y="442.6201">return value +</text><text fill="#000000" font-family="sans-serif" font-size="13" lengthAdjust="spacing" textLength="68.6436" x="83.2446" y="458.9717">data (if any)</text><!--SRC=[bL9DQm8n4BtdLmpRYrAMVa0lFHGKQnM4IhVGIq76tMY2ceGakkk_RpRxNRKVbv3Cl9bvxqtCXWk56dSmbDaSauIBDTpV4hAK6GGJQIoat39uZkPX_g9905SplcPskDrJuaejZxb2OM6Wr9R7QBaKW0PGgKuw-E3XcCCRtKbBWnoX_RKBSdEWckCWp5zP5-DPlMiKHabjFSvMBqQeIC2HBnL4MppGC-nVD3rsknR82stDEUm9JtEY9PoEnb08d_6bHdqC2c_uEMycg9CKTU5EobUy4MFgFGsqbkaxu_56K6FWZX3dD8HFfPtm2DIeHLwzoBAiroTbt25ADzkG8baYgxo3jWozFFk1a0RNgJ9kHZIVtaIZwUlFv5ibDKDJCl4XvzMffZpeSjwZ_AWU3bbOYN7-3yjStKMxDb8OMjGtytpAxhM00xfl3TUV8a6BqEChG77iDtmw8lzepRSozdzlM8iiQzPKBxtUiLUgVfNp1G00]--></g></svg>