<svg xmlns="http://www.w3.org/2000/svg" xmlns:xlink="http://www.w3.org/1999/xlink" contentStyleType="text/css" height="254px" preserveAspectRatio="none" style="width:1313px;height:254px;background:#FFFFFF;" version="1.1" viewBox="0 0 1313 254" width="1313px" zoomAndPan="magnify"><defs/><g><text fill="#000000" font-family="sans-serif" font-size="14" font-weight="bold" lengthAdjust="spacing" textLength="288" x="511" y="34.9659">SPI HD Transaction Using Four Data Lines</text><line style="stroke:#333333;stroke-width:0.5;" x1="10" x2="10" y1="50.0679" y2="242.2361"/><line style="stroke:#333333;stroke-width:0.5;" x1="1301" x2="1301" y1="50.0679" y2="242.2361"/><rect fill="#EEEEEE" height="192.1682" style="stroke:none;stroke-width:1.0;" width="200" x="1046" y="50.0679"/><line style="stroke:#333333;stroke-width:0.5;stroke-dasharray:3.0,5.0;" x1="96" x2="96" y1="50.0679" y2="242.2361"/><line style="stroke:#333333;stroke-width:0.5;stroke-dasharray:3.0,5.0;" x1="146" x2="146" y1="50.0679" y2="242.2361"/><line style="stroke:#333333;stroke-width:0.5;stroke-dasharray:3.0,5.0;" x1="196" x2="196" y1="50.0679" y2="242.2361"/><line style="stroke:#333333;stroke-width:0.5;stroke-dasharray:3.0,5.0;" x1="246" x2="246" y1="50.0679" y2="242.2361"/><line style="stroke:#333333;stroke-width:0.5;stroke-dasharray:3.0,5.0;" x1="296" x2="296" y1="50.0679" y2="242.2361"/><line style="stroke:#333333;stroke-width:0.5;stroke-dasharray:3.0,5.0;" x1="346" x2="346" y1="50.0679" y2="242.2361"/><line style="stroke:#333333;stroke-width:0.5;stroke-dasharray:3.0,5.0;" x1="396" x2="396" y1="50.0679" y2="242.2361"/><line style="stroke:#333333;stroke-width:0.5;stroke-dasharray:3.0,5.0;" x1="446" x2="446" y1="50.0679" y2="242.2361"/><line style="stroke:#333333;stroke-width:0.5;stroke-dasharray:3.0,5.0;" x1="496" x2="496" y1="50.0679" y2="242.2361"/><line style="stroke:#333333;stroke-width:0.5;stroke-dasharray:3.0,5.0;" x1="546" x2="546" y1="50.0679" y2="242.2361"/><line style="stroke:#333333;stroke-width:0.5;stroke-dasharray:3.0,5.0;" x1="596" x2="596" y1="50.0679" y2="242.2361"/><line style="stroke:#333333;stroke-width:0.5;stroke-dasharray:3.0,5.0;" x1="646" x2="646" y1="50.0679" y2="242.2361"/><line style="stroke:#333333;stroke-width:0.5;stroke-dasharray:3.0,5.0;" x1="696" x2="696" y1="50.0679" y2="242.2361"/><line style="stroke:#333333;stroke-width:0.5;stroke-dasharray:3.0,5.0;" x1="746" x2="746" y1="50.0679" y2="242.2361"/><line style="stroke:#333333;stroke-width:0.5;stroke-dasharray:3.0,5.0;" x1="796" x2="796" y1="50.0679" y2="242.2361"/><line style="stroke:#333333;stroke-width:0.5;stroke-dasharray:3.0,5.0;" x1="846" x2="846" y1="50.0679" y2="242.2361"/><line style="stroke:#333333;stroke-width:0.5;stroke-dasharray:3.0,5.0;" x1="896" x2="896" y1="50.0679" y2="242.2361"/><line style="stroke:#333333;stroke-width:0.5;stroke-dasharray:3.0,5.0;" x1="946" x2="946" y1="50.0679" y2="242.2361"/><line style="stroke:#333333;stroke-width:0.5;stroke-dasharray:3.0,5.0;" x1="996" x2="996" y1="50.0679" y2="242.2361"/><line style="stroke:#333333;stroke-width:0.5;stroke-dasharray:3.0,5.0;" x1="1046" x2="1046" y1="50.0679" y2="242.2361"/><line style="stroke:#333333;stroke-width:0.5;stroke-dasharray:3.0,5.0;" x1="1096" x2="1096" y1="50.0679" y2="242.2361"/><line style="stroke:#333333;stroke-width:0.5;stroke-dasharray:3.0,5.0;" x1="1146" x2="1146" y1="50.0679" y2="242.2361"/><line style="stroke:#333333;stroke-width:0.5;stroke-dasharray:3.0,5.0;" x1="1196" x2="1196" y1="50.0679" y2="242.2361"/><line style="stroke:#333333;stroke-width:0.5;stroke-dasharray:3.0,5.0;" x1="1246" x2="1246" y1="50.0679" y2="242.2361"/><line style="stroke:#333333;stroke-width:0.5;stroke-dasharray:3.0,5.0;" x1="1296" x2="1296" y1="50.0679" y2="242.2361"/><line style="stroke:#333333;stroke-width:0.5;" x1="10" x2="1301" y1="50.0679" y2="50.0679"/><text fill="#333333" font-family="sans-serif" font-size="14" font-weight="bold" lengthAdjust="spacing" textLength="76" x="15" y="70.4999">Chip Select</text><line style="stroke:#006400;stroke-width:2.0;" x1="96" x2="96" y1="104.7561" y2="104.7561"/><line style="stroke:#006400;stroke-width:2.0;" x1="96" x2="96" y1="90.7561" y2="104.7561"/><line style="stroke:#006400;stroke-width:2.0;" x1="96" x2="146" y1="90.7561" y2="90.7561"/><line style="stroke:#006400;stroke-width:2.0;" x1="146" x2="146" y1="90.7561" y2="104.7561"/><line style="stroke:#006400;stroke-width:2.0;" x1="146" x2="1246" y1="104.7561" y2="104.7561"/><line style="stroke:#006400;stroke-width:2.0;" x1="1246" x2="1246" y1="90.7561" y2="104.7561"/><line style="stroke:#006400;stroke-width:2.0;" x1="1246" x2="1296" y1="90.7561" y2="90.7561"/><line style="stroke:#333333;stroke-width:0.5;" x1="10" x2="1301" y1="112.7561" y2="112.7561"/><text fill="#333333" font-family="sans-serif" font-size="14" font-weight="bold" lengthAdjust="spacing" textLength="38" x="15" y="127.7221">Clock</text><line style="stroke:#333333;stroke-width:0.5;" x1="10" x2="54" y1="132.8241" y2="132.8241"/><line style="stroke:#333333;stroke-width:0.5;" x1="54" x2="64" y1="132.8241" y2="112.7561"/><line style="stroke:#006400;stroke-width:1.5;" x1="96" x2="96" y1="139.8241" y2="153.8241"/><line style="stroke:#006400;stroke-width:1.5;" x1="96" x2="121" y1="139.8241" y2="139.8241"/><line style="stroke:#006400;stroke-width:1.5;" x1="121" x2="121" y1="139.8241" y2="153.8241"/><line style="stroke:#006400;stroke-width:1.5;" x1="121" x2="146" y1="153.8241" y2="153.8241"/><line style="stroke:#006400;stroke-width:1.5;" x1="146" x2="146" y1="139.8241" y2="153.8241"/><line style="stroke:#006400;stroke-width:1.5;" x1="146" x2="171" y1="139.8241" y2="139.8241"/><line style="stroke:#006400;stroke-width:1.5;" x1="171" x2="171" y1="139.8241" y2="153.8241"/><line style="stroke:#006400;stroke-width:1.5;" x1="171" x2="196" y1="153.8241" y2="153.8241"/><line style="stroke:#006400;stroke-width:1.5;" x1="196" x2="196" y1="139.8241" y2="153.8241"/><line style="stroke:#006400;stroke-width:1.5;" x1="196" x2="221" y1="139.8241" y2="139.8241"/><line style="stroke:#006400;stroke-width:1.5;" x1="221" x2="221" y1="139.8241" y2="153.8241"/><line style="stroke:#006400;stroke-width:1.5;" x1="221" x2="246" y1="153.8241" y2="153.8241"/><line style="stroke:#006400;stroke-width:1.5;" x1="246" x2="246" y1="139.8241" y2="153.8241"/><line style="stroke:#006400;stroke-width:1.5;" x1="246" x2="271" y1="139.8241" y2="139.8241"/><line style="stroke:#006400;stroke-width:1.5;" x1="271" x2="271" y1="139.8241" y2="153.8241"/><line style="stroke:#006400;stroke-width:1.5;" x1="271" x2="296" y1="153.8241" y2="153.8241"/><line style="stroke:#006400;stroke-width:1.5;" x1="296" x2="296" y1="139.8241" y2="153.8241"/><line style="stroke:#006400;stroke-width:1.5;" x1="296" x2="321" y1="139.8241" y2="139.8241"/><line style="stroke:#006400;stroke-width:1.5;" x1="321" x2="321" y1="139.8241" y2="153.8241"/><line style="stroke:#006400;stroke-width:1.5;" x1="321" x2="346" y1="153.8241" y2="153.8241"/><line style="stroke:#006400;stroke-width:1.5;" x1="346" x2="346" y1="139.8241" y2="153.8241"/><line style="stroke:#006400;stroke-width:1.5;" x1="346" x2="371" y1="139.8241" y2="139.8241"/><line style="stroke:#006400;stroke-width:1.5;" x1="371" x2="371" y1="139.8241" y2="153.8241"/><line style="stroke:#006400;stroke-width:1.5;" x1="371" x2="396" y1="153.8241" y2="153.8241"/><line style="stroke:#006400;stroke-width:1.5;" x1="396" x2="396" y1="139.8241" y2="153.8241"/><line style="stroke:#006400;stroke-width:1.5;" x1="396" x2="421" y1="139.8241" y2="139.8241"/><line style="stroke:#006400;stroke-width:1.5;" x1="421" x2="421" y1="139.8241" y2="153.8241"/><line style="stroke:#006400;stroke-width:1.5;" x1="421" x2="446" y1="153.8241" y2="153.8241"/><line style="stroke:#006400;stroke-width:1.5;" x1="446" x2="446" y1="139.8241" y2="153.8241"/><line style="stroke:#006400;stroke-width:1.5;" x1="446" x2="471" y1="139.8241" y2="139.8241"/><line style="stroke:#006400;stroke-width:1.5;" x1="471" x2="471" y1="139.8241" y2="153.8241"/><line style="stroke:#006400;stroke-width:1.5;" x1="471" x2="496" y1="153.8241" y2="153.8241"/><line style="stroke:#006400;stroke-width:1.5;" x1="496" x2="496" y1="139.8241" y2="153.8241"/><line style="stroke:#006400;stroke-width:1.5;" x1="496" x2="521" y1="139.8241" y2="139.8241"/><line style="stroke:#006400;stroke-width:1.5;" x1="521" x2="521" y1="139.8241" y2="153.8241"/><line style="stroke:#006400;stroke-width:1.5;" x1="521" x2="546" y1="153.8241" y2="153.8241"/><line style="stroke:#006400;stroke-width:1.5;" x1="546" x2="546" y1="139.8241" y2="153.8241"/><line style="stroke:#006400;stroke-width:1.5;" x1="546" x2="571" y1="139.8241" y2="139.8241"/><line style="stroke:#006400;stroke-width:1.5;" x1="571" x2="571" y1="139.8241" y2="153.8241"/><line style="stroke:#006400;stroke-width:1.5;" x1="571" x2="596" y1="153.8241" y2="153.8241"/><line style="stroke:#006400;stroke-width:1.5;" x1="596" x2="596" y1="139.8241" y2="153.8241"/><line style="stroke:#006400;stroke-width:1.5;" x1="596" x2="621" y1="139.8241" y2="139.8241"/><line style="stroke:#006400;stroke-width:1.5;" x1="621" x2="621" y1="139.8241" y2="153.8241"/><line style="stroke:#006400;stroke-width:1.5;" x1="621" x2="646" y1="153.8241" y2="153.8241"/><line style="stroke:#006400;stroke-width:1.5;" x1="646" x2="646" y1="139.8241" y2="153.8241"/><line style="stroke:#006400;stroke-width:1.5;" x1="646" x2="671" y1="139.8241" y2="139.8241"/><line style="stroke:#006400;stroke-width:1.5;" x1="671" x2="671" y1="139.8241" y2="153.8241"/><line style="stroke:#006400;stroke-width:1.5;" x1="671" x2="696" y1="153.8241" y2="153.8241"/><line style="stroke:#006400;stroke-width:1.5;" x1="696" x2="696" y1="139.8241" y2="153.8241"/><line style="stroke:#006400;stroke-width:1.5;" x1="696" x2="721" y1="139.8241" y2="139.8241"/><line style="stroke:#006400;stroke-width:1.5;" x1="721" x2="721" y1="139.8241" y2="153.8241"/><line style="stroke:#006400;stroke-width:1.5;" x1="721" x2="746" y1="153.8241" y2="153.8241"/><line style="stroke:#006400;stroke-width:1.5;" x1="746" x2="746" y1="139.8241" y2="153.8241"/><line style="stroke:#006400;stroke-width:1.5;" x1="746" x2="771" y1="139.8241" y2="139.8241"/><line style="stroke:#006400;stroke-width:1.5;" x1="771" x2="771" y1="139.8241" y2="153.8241"/><line style="stroke:#006400;stroke-width:1.5;" x1="771" x2="796" y1="153.8241" y2="153.8241"/><line style="stroke:#006400;stroke-width:1.5;" x1="796" x2="796" y1="139.8241" y2="153.8241"/><line style="stroke:#006400;stroke-width:1.5;" x1="796" x2="821" y1="139.8241" y2="139.8241"/><line style="stroke:#006400;stroke-width:1.5;" x1="821" x2="821" y1="139.8241" y2="153.8241"/><line style="stroke:#006400;stroke-width:1.5;" x1="821" x2="846" y1="153.8241" y2="153.8241"/><line style="stroke:#006400;stroke-width:1.5;" x1="846" x2="846" y1="139.8241" y2="153.8241"/><line style="stroke:#006400;stroke-width:1.5;" x1="846" x2="871" y1="139.8241" y2="139.8241"/><line style="stroke:#006400;stroke-width:1.5;" x1="871" x2="871" y1="139.8241" y2="153.8241"/><line style="stroke:#006400;stroke-width:1.5;" x1="871" x2="896" y1="153.8241" y2="153.8241"/><line style="stroke:#006400;stroke-width:1.5;" x1="896" x2="896" y1="139.8241" y2="153.8241"/><line style="stroke:#006400;stroke-width:1.5;" x1="896" x2="921" y1="139.8241" y2="139.8241"/><line style="stroke:#006400;stroke-width:1.5;" x1="921" x2="921" y1="139.8241" y2="153.8241"/><line style="stroke:#006400;stroke-width:1.5;" x1="921" x2="946" y1="153.8241" y2="153.8241"/><line style="stroke:#006400;stroke-width:1.5;" x1="946" x2="946" y1="139.8241" y2="153.8241"/><line style="stroke:#006400;stroke-width:1.5;" x1="946" x2="971" y1="139.8241" y2="139.8241"/><line style="stroke:#006400;stroke-width:1.5;" x1="971" x2="971" y1="139.8241" y2="153.8241"/><line style="stroke:#006400;stroke-width:1.5;" x1="971" x2="996" y1="153.8241" y2="153.8241"/><line style="stroke:#006400;stroke-width:1.5;" x1="996" x2="996" y1="139.8241" y2="153.8241"/><line style="stroke:#006400;stroke-width:1.5;" x1="996" x2="1021" y1="139.8241" y2="139.8241"/><line style="stroke:#006400;stroke-width:1.5;" x1="1021" x2="1021" y1="139.8241" y2="153.8241"/><line style="stroke:#006400;stroke-width:1.5;" x1="1021" x2="1046" y1="153.8241" y2="153.8241"/><line style="stroke:#006400;stroke-width:1.5;" x1="1046" x2="1046" y1="139.8241" y2="153.8241"/><line style="stroke:#006400;stroke-width:1.5;" x1="1046" x2="1071" y1="139.8241" y2="139.8241"/><line style="stroke:#006400;stroke-width:1.5;" x1="1071" x2="1071" y1="139.8241" y2="153.8241"/><line style="stroke:#006400;stroke-width:1.5;" x1="1071" x2="1096" y1="153.8241" y2="153.8241"/><line style="stroke:#006400;stroke-width:1.5;" x1="1096" x2="1096" y1="139.8241" y2="153.8241"/><line style="stroke:#006400;stroke-width:1.5;" x1="1096" x2="1121" y1="139.8241" y2="139.8241"/><line style="stroke:#006400;stroke-width:1.5;" x1="1121" x2="1121" y1="139.8241" y2="153.8241"/><line style="stroke:#006400;stroke-width:1.5;" x1="1121" x2="1146" y1="153.8241" y2="153.8241"/><line style="stroke:#006400;stroke-width:1.5;" x1="1146" x2="1146" y1="139.8241" y2="153.8241"/><line style="stroke:#006400;stroke-width:1.5;" x1="1146" x2="1171" y1="139.8241" y2="139.8241"/><line style="stroke:#006400;stroke-width:1.5;" x1="1171" x2="1171" y1="139.8241" y2="153.8241"/><line style="stroke:#006400;stroke-width:1.5;" x1="1171" x2="1196" y1="153.8241" y2="153.8241"/><line style="stroke:#006400;stroke-width:1.5;" x1="1196" x2="1196" y1="139.8241" y2="153.8241"/><line style="stroke:#006400;stroke-width:1.5;" x1="1196" x2="1221" y1="139.8241" y2="139.8241"/><line style="stroke:#006400;stroke-width:1.5;" x1="1221" x2="1221" y1="139.8241" y2="153.8241"/><line style="stroke:#006400;stroke-width:1.5;" x1="1221" x2="1246" y1="153.8241" y2="153.8241"/><line style="stroke:#006400;stroke-width:1.5;" x1="1246" x2="1246" y1="139.8241" y2="153.8241"/><line style="stroke:#006400;stroke-width:1.5;" x1="1246" x2="1271" y1="139.8241" y2="139.8241"/><line style="stroke:#006400;stroke-width:1.5;" x1="1271" x2="1271" y1="139.8241" y2="153.8241"/><line style="stroke:#006400;stroke-width:1.5;" x1="1271" x2="1296" y1="153.8241" y2="153.8241"/><line style="stroke:#006400;stroke-width:1.5;" x1="1296" x2="1296" y1="139.8241" y2="153.8241"/><line style="stroke:#006400;stroke-width:1.5;" x1="1296" x2="1296" y1="139.8241" y2="139.8241"/><line style="stroke:#333333;stroke-width:0.5;" x1="10" x2="1301" y1="161.8241" y2="161.8241"/><text fill="#333333" font-family="sans-serif" font-size="14" font-weight="bold" lengthAdjust="spacing" textLength="53" x="15" y="176.79">Data0-3</text><line style="stroke:#333333;stroke-width:0.5;" x1="10" x2="69" y1="181.892" y2="181.892"/><line style="stroke:#333333;stroke-width:0.5;" x1="69" x2="79" y1="181.892" y2="161.8241"/><line style="stroke:#006400;stroke-width:1.5;" x1="96" x2="146" y1="220.2361" y2="220.2361"/><polygon fill="#E2E2F0" points="158,208.2361,534,208.2361,546,220.2361,534,232.2361,158,232.2361,146,220.2361" style="stroke:#006400;stroke-width:1.5;"/><polygon fill="#E2E2F0" points="558,208.2361,634,208.2361,646,220.2361,634,232.2361,558,232.2361,546,220.2361" style="stroke:#006400;stroke-width:1.5;"/><polygon fill="#E2E2F0" points="658,208.2361,1034,208.2361,1046,220.2361,1034,232.2361,658,232.2361,646,220.2361" style="stroke:#006400;stroke-width:1.5;"/><polygon fill="#E2E2F0" points="1058,208.2361,1134,208.2361,1146,220.2361,1134,232.2361,1058,232.2361,1046,220.2361" style="stroke:#006400;stroke-width:1.5;"/><polygon fill="#E2E2F0" points="1158,208.2361,1234,208.2361,1246,220.2361,1234,232.2361,1158,232.2361,1146,220.2361" style="stroke:#006400;stroke-width:1.5;"/><line style="stroke:#006400;stroke-width:1.5;" x1="1246" x2="1296" y1="220.2361" y2="220.2361"/><text fill="#333333" font-family="sans-serif" font-size="12" font-weight="bold" lengthAdjust="spacing" textLength="118" x="287" y="224.8921">Command (D0 only)</text><text fill="#333333" font-family="sans-serif" font-size="12" font-weight="bold" lengthAdjust="spacing" textLength="86" x="553" y="224.8921">Address (D0-3)</text><text fill="#333333" font-family="sans-serif" font-size="12" font-weight="bold" lengthAdjust="spacing" textLength="48" x="822" y="224.8921">Dummy</text><text fill="#333333" font-family="sans-serif" font-size="12" font-weight="bold" lengthAdjust="spacing" textLength="66" x="1063" y="224.8921">Data (D0-3)</text><text fill="#333333" font-family="sans-serif" font-size="12" font-weight="bold" lengthAdjust="spacing" textLength="9" x="1191.5" y="224.8921">...</text><line style="stroke:#8B0000;stroke-width:1.5;" x1="147" x2="545" y1="197.564" y2="197.564"/><polygon fill="#8B0000" points="155,201.564,155,193.564,147,197.564" style="stroke:#8B0000;stroke-width:1.0;"/><polygon fill="#8B0000" points="537,201.564,537,193.564,545,197.564" style="stroke:#8B0000;stroke-width:1.0;"/><text fill="#8B0000" font-family="sans-serif" font-size="12" lengthAdjust="spacing" textLength="25" x="333.5" y="189.048">8 clk</text><line style="stroke:#8B0000;stroke-width:1.5;" x1="547" x2="645" y1="197.564" y2="197.564"/><polygon fill="#8B0000" points="555,201.564,555,193.564,547,197.564" style="stroke:#8B0000;stroke-width:1.0;"/><polygon fill="#8B0000" points="637,201.564,637,193.564,645,197.564" style="stroke:#8B0000;stroke-width:1.0;"/><text fill="#8B0000" font-family="sans-serif" font-size="12" lengthAdjust="spacing" textLength="25" x="583.5" y="189.048">2 clk</text><line style="stroke:#8B0000;stroke-width:1.5;" x1="647" x2="1045" y1="197.564" y2="197.564"/><polygon fill="#8B0000" points="655,201.564,655,193.564,647,197.564" style="stroke:#8B0000;stroke-width:1.0;"/><polygon fill="#8B0000" points="1037,201.564,1037,193.564,1045,197.564" style="stroke:#8B0000;stroke-width:1.0;"/><text fill="#8B0000" font-family="sans-serif" font-size="12" lengthAdjust="spacing" textLength="25" x="833.5" y="189.048">8 clk</text><line style="stroke:#8B0000;stroke-width:1.5;" x1="1047" x2="1145" y1="197.564" y2="197.564"/><polygon fill="#8B0000" points="1055,201.564,1055,193.564,1047,197.564" style="stroke:#8B0000;stroke-width:1.0;"/><polygon fill="#8B0000" points="1137,201.564,1137,193.564,1145,197.564" style="stroke:#8B0000;stroke-width:1.0;"/><text fill="#8B0000" font-family="sans-serif" font-size="12" lengthAdjust="spacing" textLength="25" x="1083.5" y="189.048">2 clk</text><line style="stroke:#8B0000;stroke-width:1.5;" x1="1147" x2="1245" y1="197.564" y2="197.564"/><polygon fill="#8B0000" points="1155,201.564,1155,193.564,1147,197.564" style="stroke:#8B0000;stroke-width:1.0;"/><polygon fill="#8B0000" points="1237,201.564,1237,193.564,1245,197.564" style="stroke:#8B0000;stroke-width:1.0;"/><text fill="#8B0000" font-family="sans-serif" font-size="12" lengthAdjust="spacing" textLength="25" x="1183.5" y="189.048">2 clk</text><line style="stroke:#333333;stroke-width:2.0;stroke-dasharray:4.0,4.0;" x1="1046" x2="1046" y1="50.0679" y2="242.2361"/><line style="stroke:#333333;stroke-width:2.0;stroke-dasharray:4.0,4.0;" x1="1246" x2="1246" y1="50.0679" y2="242.2361"/><text fill="#000000" font-family="sans-serif" font-size="12" lengthAdjust="spacing" textLength="162" x="1049" y="64.896">Optional for SPI Transactions</text><text fill="#000000" font-family="sans-serif" font-size="12" lengthAdjust="spacing" textLength="69" x="1049" y="81.2401">without data</text><!--SRC=[TP5HIyCm58NVyoiEVLAafMbVfeXCLaH1KDXyyoMcSRqiJKgJCOVutqtQiesX3o79ETzDBkSsL2juQbKgliWnza56z7iaYuOwB9LMqYSG3j8ngQtS12TkewOts95lqAcUR0tEf3MId49I2I_oj1omEfmPMv7N2ilN9pnMMFN2E24zMOCtHsQD1xlj4QlmJ4Q5HkOvamxaqD2wOV6DUFbEVu9rnITFszt1IXQsROMfSL7bi4RlBvE8pex0VLttoha8fENe5aUtshRj_hnawEXlFikoIVgtJuxRz0xpQznW5jDYuJWed0Uf62K-KVm4unDNd735n1NbGMFnJnsMHwZm5eFtqiLSXSQdxOV0Jz9sxoPEp6xzE9PV]--></g></svg>