<svg xmlns="http://www.w3.org/2000/svg" xmlns:xlink="http://www.w3.org/1999/xlink" contentStyleType="text/css" height="513px" preserveAspectRatio="none" style="width:339px;height:513px;background:#FFFFFF;" version="1.1" viewBox="0 0 339 513" width="339px" zoomAndPan="magnify"><defs/><g><text fill="#000000" font-family="sans-serif" font-size="14" font-weight="bold" lengthAdjust="spacing" textLength="122" x="107" y="29.9659">SPI HD Host Read</text><line style="stroke:#181818;stroke-width:0.5;stroke-dasharray:5.0,5.0;" x1="80" x2="80" y1="79.1358" y2="475.608"/><line style="stroke:#181818;stroke-width:0.5;stroke-dasharray:5.0,5.0;" x1="215.5" x2="215.5" y1="79.1358" y2="475.608"/><rect fill="#E2E2F0" height="33.0679" rx="2.5" ry="2.5" style="stroke:#181818;stroke-width:0.5;" width="49" x="56" y="45.0679"/><text fill="#000000" font-family="sans-serif" font-size="14" lengthAdjust="spacing" textLength="35" x="63" y="67.0339">Slave</text><rect fill="#E2E2F0" height="33.0679" rx="2.5" ry="2.5" style="stroke:#181818;stroke-width:0.5;" width="49" x="56" y="474.608"/><text fill="#000000" font-family="sans-serif" font-size="14" lengthAdjust="spacing" textLength="35" x="63" y="496.574">Slave</text><rect fill="#E2E2F0" height="33.0679" rx="2.5" ry="2.5" style="stroke:#181818;stroke-width:0.5;" width="44" x="193.5" y="45.0679"/><text fill="#000000" font-family="sans-serif" font-size="14" lengthAdjust="spacing" textLength="30" x="200.5" y="67.0339">Host</text><rect fill="#E2E2F0" height="33.0679" rx="2.5" ry="2.5" style="stroke:#181818;stroke-width:0.5;" width="44" x="193.5" y="474.608"/><text fill="#000000" font-family="sans-serif" font-size="14" lengthAdjust="spacing" textLength="30" x="200.5" y="496.574">Host</text><path d="M7,94.1358 L7,121.1358 L153,121.1358 L153,104.1358 L143,94.1358 L7,94.1358 " fill="#FEFFDD" style="stroke:#181818;stroke-width:0.5;"/><path d="M143,94.1358 L143,104.1358 L153,104.1358 L143,94.1358 " fill="#FEFFDD" style="stroke:#181818;stroke-width:0.5;"/><text fill="#000000" font-family="sans-serif" font-size="13" lengthAdjust="spacing" textLength="125" x="13" y="113.0328">Prepare data to send</text><polygon fill="#181818" points="203.5,146.5479,213.5,150.5479,203.5,154.5479,207.5,150.5479" style="stroke:#181818;stroke-width:1.0;"/><line style="stroke:#181818;stroke-width:1.0;" x1="80.5" x2="209.5" y1="150.5479" y2="150.5479"/><text fill="#000000" font-family="sans-serif" font-size="13" lengthAdjust="spacing" textLength="111" x="87.5" y="144.7389">Assert Data_Ready</text><polygon fill="#181818" points="91.5,178.2539,81.5,182.2539,91.5,186.2539,87.5,182.2539" style="stroke:#181818;stroke-width:1.0;"/><line style="stroke:#181818;stroke-width:1.0;" x1="85.5" x2="214.5" y1="182.2539" y2="182.2539"/><text fill="#000000" font-family="sans-serif" font-size="13" lengthAdjust="spacing" textLength="109" x="97.5" y="176.4449">Read TX_BUF_LEN</text><path d="M99,195.2539 L99,240.2539 L332,240.2539 L332,205.2539 L322,195.2539 L99,195.2539 " fill="#FEFFDD" style="stroke:#181818;stroke-width:0.5;"/><path d="M322,195.2539 L322,205.2539 L332,205.2539 L322,195.2539 " fill="#FEFFDD" style="stroke:#181818;stroke-width:0.5;"/><text fill="#000000" font-family="sans-serif" font-size="13" lengthAdjust="spacing" textLength="109" x="105" y="214.1509">Bytes to transfer =</text><text fill="#000000" font-family="sans-serif" font-size="13" lengthAdjust="spacing" textLength="212" x="105" y="231.8569">TX_BUF_LEN - (cached)TX_BUF_LEN</text><polygon fill="#181818" points="91.5,265.3719,81.5,269.3719,91.5,273.3719,87.5,269.3719" style="stroke:#181818;stroke-width:1.0;"/><line style="stroke:#181818;stroke-width:1.0;" x1="85.5" x2="214.5" y1="269.3719" y2="269.3719"/><text fill="#000000" font-family="sans-serif" font-size="13" lengthAdjust="spacing" textLength="69" x="97.5" y="263.5629">Send CMD9</text><path d="M5,282.3719 L5,309.3719 L157,309.3719 L157,292.3719 L147,282.3719 L5,282.3719 " fill="#FEFFDD" style="stroke:#181818;stroke-width:0.5;"/><path d="M147,282.3719 L147,292.3719 L157,292.3719 L147,282.3719 " fill="#FEFFDD" style="stroke:#181818;stroke-width:0.5;"/><text fill="#000000" font-family="sans-serif" font-size="13" lengthAdjust="spacing" textLength="131" x="11" y="301.2689">De-Assert Data_Ready</text><polygon fill="#181818" points="91.5,334.784,81.5,338.784,91.5,342.784,87.5,338.784" style="stroke:#181818;stroke-width:1.0;"/><line style="stroke:#181818;stroke-width:1.0;" x1="85.5" x2="214.5" y1="338.784" y2="338.784"/><text fill="#000000" font-family="sans-serif" font-size="13" lengthAdjust="spacing" textLength="79" x="97.5" y="332.975">Send RDDMA</text><polygon fill="#181818" points="203.5,366.49,213.5,370.49,203.5,374.49,207.5,370.49" style="stroke:#181818;stroke-width:1.0;"/><line style="stroke:#181818;stroke-width:1.0;" x1="80.5" x2="209.5" y1="370.49" y2="370.49"/><text fill="#000000" font-family="sans-serif" font-size="13" lengthAdjust="spacing" textLength="80" x="87.5" y="364.681">Transfer Data</text><polygon fill="#181818" points="91.5,415.902,81.5,419.902,91.5,423.902,87.5,419.902" style="stroke:#181818;stroke-width:1.0;"/><line style="stroke:#181818;stroke-width:1.0;" x1="85.5" x2="214.5" y1="419.902" y2="419.902"/><text fill="#000000" font-family="sans-serif" font-size="13" lengthAdjust="spacing" textLength="36" x="97.5" y="396.387">CMD8</text><text fill="#000000" font-family="sans-serif" font-size="13" lengthAdjust="spacing" textLength="111" x="97.5" y="414.093">(at end of transfer)</text><path d="M119,432.902 L119,459.902 L312,459.902 L312,442.902 L302,432.902 L119,432.902 " fill="#FEFFDD" style="stroke:#181818;stroke-width:0.5;"/><path d="M302,432.902 L302,442.902 L312,442.902 L302,432.902 " fill="#FEFFDD" style="stroke:#181818;stroke-width:0.5;"/><text fill="#000000" font-family="sans-serif" font-size="13" lengthAdjust="spacing" textLength="172" x="125" y="451.799">update (cached)TX_BUF_LEN</text><!--SRC=[XP1FYy8m5CJl-HHpr4Flhg2WPiM5LSHMy22KH_kA1KbAyXJyzflKzTzMsEjavZTlajLoPAJhBomq5jOBDaobKWqvgOkw8ID8ZtJc5oKQbJ9M6FRCxkeOOkquk1Wb2K4iF9k0QX-HZDlK41FlsGbqyEInww9KsniClvYe8jlbq-qy__vSFVLS2TEBi8zySMHy5VJHtZpyID0hg3XmsN-2_2r9mssOBVN7cnsQa_-lR04RhPUJpiJiTbUCTuAXTB0tFH94WgtkC_ggC_NKXB_aTtj-0000]--></g></svg>